# xmcd CD database file
#
# Track frame offsets:
#	150
#	14332
#	36127
#	55228
#	81422
#	105370
#	139805
#	160803
#	195313
#	226573
#	254667
#
# Disc length: 3808 seconds
#
# Revision: 2
# Processed by: cddbd v1.5.2PL0 Copyright (c) Steve Scherf et al.
# Submitted via: CDex 1.70beta3
#
DISCID=840ede0b
DTITLE=John Mayer Trio - Try!
DYEAR=2005
DGENRE=Rock
TTITLE0=Who Did You Think I Was
TTITLE1=Good Love Is On The Way
TTITLE2=Wait Until Tomorrow
TTITLE3=Gravity
TTITLE4=Vultures
TTITLE5=Out Of My Mind
TTITLE6=Another Kind Of Green
TTITLE7=I Got A Woman
TTITLE8=Something's Missing
TTITLE9=Daughters
TTITLE10=Try
EXTD=YEAR: 2005
EXTT0=
EXTT1=
EXTT2=
EXTT3=
EXTT4=
EXTT5=
EXTT6=
EXTT7=
EXTT8=
EXTT9=
EXTT10=
PLAYORDER=
